<svg width="19" height="18" viewBox="0 0 19 18" fill="none" xmlns="http://www.w3.org/2000/svg">
    <path d="M4.96665 15.2331V14.6662C4.96665 12.7885 6.48888 11.2664 8.36665 11.2664H10.6333C12.5111 11.2664 14.0333 12.7885 14.0333 14.6662V15.2331M9.49998 4.46641C8.24814 4.46641 7.23332 5.48123 7.23332 6.73307C7.23332 7.98492 8.24814 8.99974 9.49998 8.99974C10.7518 8.99974 11.7667 7.98492 11.7667 6.73307C11.7667 5.48123 10.7518 4.46641 9.49998 4.46641ZM9.49998 16.9331C5.11852 16.9331 1.56665 13.3812 1.56665 8.99974C1.56665 4.61828 5.11852 1.06641 9.49998 1.06641C13.8814 1.06641 17.4333 4.61828 17.4333 8.99974C17.4333 13.3812 13.8814 16.9331 9.49998 16.9331Z" stroke="#D2D1D4" stroke-width="1.2" stroke-linecap="square"/>
    </svg>
    